<svg width="36" height="32" viewBox="0 0 36 32" fill="none" xmlns="http://www.w3.org/2000/svg">
<path d="M20.2239 4.20003L20.2234 4.2005L18.8642 5.61129L18.1441 6.35877L17.4239 5.61129L16.0647 4.2005L16.0636 4.19931C12.9232 0.929016 7.89327 0.460658 4.56182 3.32022L20.2239 4.20003ZM20.2239 4.20003C23.3716 0.928587 28.3948 0.461039 31.7259 3.31982C35.6166 6.6647 35.8257 12.6863 32.3333 16.3166L32.3331 16.3168M20.2239 4.20003L32.3331 16.3168M32.3331 16.3168L18.9827 30.2021C18.9826 30.2022 18.9826 30.2022 18.9825 30.2023C18.5135 30.6896 17.7677 30.6896 17.2987 30.2023C17.2987 30.2022 17.2986 30.2022 17.2985 30.2021L3.9486 16.3173M32.3331 16.3168L3.9486 16.3173M3.9486 16.3173L3.94818 16.3168C0.462446 12.6865 0.671618 6.66524 4.56171 3.32032L3.9486 16.3173Z" stroke="white" stroke-width="2"/>
</svg>
