<svg width="33" height="34" viewBox="0 0 33 34" fill="none" xmlns="http://www.w3.org/2000/svg">
<path d="M16.5 12.6662C15.723 12.6665 14.9635 12.8989 14.3175 13.3341C13.6716 13.7693 13.1682 14.3876 12.8711 15.1111C12.5739 15.8345 12.4963 16.6304 12.6481 17.3982C12.7999 18.1661 13.1742 18.8713 13.7237 19.4248C14.2733 19.9783 14.9734 20.3552 15.7355 20.5079C16.4976 20.6605 17.2875 20.582 18.0054 20.2823C18.7233 19.9827 19.3368 19.4752 19.7685 18.8243C20.2001 18.1733 20.4305 17.4079 20.4305 16.625C20.4298 15.575 20.0153 14.5683 19.2784 13.826C18.5414 13.0837 17.5421 12.6666 16.5 12.6662V12.6662ZM25.6862 9.6232C25.4862 9.11246 25.1842 8.64858 24.7988 8.26033C24.4135 7.87208 23.9531 7.56775 23.4462 7.36621C21.8993 6.75094 18.2163 6.88898 16.5 6.88898C14.7837 6.88898 11.1044 6.74574 9.55306 7.36621C9.04616 7.56775 8.58576 7.87208 8.20043 8.26033C7.8151 8.64858 7.51306 9.11246 7.31304 9.6232C6.70313 11.1818 6.8394 14.8964 6.8394 16.6243C6.8394 18.3521 6.70313 22.0623 7.31598 23.6261C7.516 24.1368 7.81805 24.6007 8.20338 24.9889C8.58871 25.3772 9.0491 25.6815 9.556 25.883C11.1029 26.4983 14.7859 26.3603 16.5029 26.3603C18.22 26.3603 21.8979 26.5035 23.4492 25.883C23.9561 25.6815 24.4165 25.3772 24.8018 24.9889C25.1871 24.6007 25.4892 24.1368 25.6892 23.6261C26.3042 22.0675 26.1628 18.3528 26.1628 16.625C26.1628 14.8972 26.3042 11.1877 25.6892 9.62395L25.6862 9.6232ZM16.5 22.7109C15.3054 22.7109 14.1376 22.354 13.1443 21.6853C12.151 21.0165 11.3768 20.066 10.9196 18.954C10.4624 17.8419 10.3428 16.6182 10.5759 15.4377C10.8089 14.2571 11.3842 13.1727 12.2289 12.3216C13.0737 11.4705 14.1499 10.8908 15.3216 10.656C16.4933 10.4212 17.7078 10.5417 18.8115 11.0023C19.9152 11.463 20.8585 12.243 21.5222 13.2438C22.1859 14.2447 22.5402 15.4213 22.5402 16.625C22.5411 17.4245 22.3856 18.2163 22.0824 18.9551C21.7792 19.694 21.3343 20.3653 20.7732 20.9306C20.2121 21.4959 19.5459 21.9442 18.8126 22.2497C18.0794 22.5552 17.2935 22.7119 16.5 22.7109V22.7109ZM22.7892 11.7043C22.5103 11.7044 22.2376 11.6213 22.0057 11.4653C21.7737 11.3092 21.5929 11.0874 21.4861 10.8279C21.3793 10.5683 21.3512 10.2827 21.4056 10.0071C21.4599 9.73146 21.5941 9.47828 21.7912 9.27953C21.9884 9.08079 22.2396 8.94542 22.5131 8.89055C22.7866 8.83568 23.0701 8.86377 23.3278 8.97127C23.5854 9.07876 23.8057 9.26084 23.9606 9.49446C24.1156 9.72808 24.1983 10.0028 24.1983 10.2837C24.1991 10.4703 24.1633 10.6553 24.093 10.8279C24.0226 11.0005 23.9192 11.1575 23.7886 11.2897C23.6579 11.422 23.5026 11.5269 23.3316 11.5986C23.1606 11.6702 22.9773 11.7072 22.7921 11.7073L22.7892 11.7043ZM29.4643 0H3.53571C2.59798 0 1.69866 0.375334 1.03559 1.04343C0.372512 1.71153 0 2.61767 0 3.5625L0 29.6875C0 30.6323 0.372512 31.5385 1.03559 32.2066C1.69866 32.8747 2.59798 33.25 3.53571 33.25H29.4643C30.402 33.25 31.3013 32.8747 31.9644 32.2066C32.6275 31.5385 33 30.6323 33 29.6875V3.5625C33 2.61767 32.6275 1.71153 31.9644 1.04343C31.3013 0.375334 30.402 0 29.4643 0V0ZM28.2032 21.5234C28.1082 23.4257 27.6773 25.1112 26.2991 26.4961C24.9209 27.881 23.2495 28.3241 21.3638 28.4146C19.4184 28.5252 13.586 28.5252 11.6406 28.4146C9.75268 28.3189 8.08574 27.884 6.70533 26.4961C5.32493 25.1082 4.89107 23.422 4.80121 21.5234C4.69145 19.5626 4.69145 13.6852 4.80121 11.7266C4.89623 9.82434 5.32199 8.13883 6.70533 6.75391C8.08868 5.36898 9.76004 4.93109 11.6406 4.84055C13.586 4.72996 19.4184 4.72996 21.3638 4.84055C23.2517 4.93629 24.9238 5.37121 26.2991 6.7591C27.6743 8.14699 28.1133 9.83324 28.2032 11.7355C28.313 13.6889 28.313 19.5611 28.2032 21.5234Z" fill="#514354"/>
</svg>
