<svg width="37" height="28" viewBox="0 0 37 28" fill="none" xmlns="http://www.w3.org/2000/svg">
<path d="M25.4385 18.2414C31.1606 13.967 33.5879 12.1212 35.1338 10.9108V24.2163C35.1338 25.5705 34.072 26.6217 32.822 26.6217H4.11945C2.86941 26.6217 1.80762 25.5705 1.80762 24.2163V10.9167C3.35584 12.1258 5.78804 13.9672 11.5099 18.2414C11.6948 18.3802 11.9156 18.5553 12.1633 18.7517C12.7806 19.2413 13.5649 19.8632 14.3762 20.3853C15.5257 21.1253 16.952 21.8245 18.4693 21.818C19.9971 21.8289 21.441 21.1164 22.5955 20.3714C23.4095 19.8462 24.1957 19.2213 24.8025 18.7389C25.0469 18.5447 25.2622 18.3736 25.4385 18.2414ZM18.4884 17.5407L18.4707 17.5404L18.453 17.5407C18.261 17.5441 17.9717 17.4806 17.577 17.3032C17.1925 17.1304 16.7724 16.8791 16.3373 16.5817C15.7538 16.1828 15.24 15.7737 14.7697 15.3992C14.5022 15.1862 14.2488 14.9844 14.0047 14.8022L14.0044 14.802C5.53056 8.47875 4.31518 7.50069 2.51488 6.05192C2.37226 5.93714 2.22597 5.81941 2.07211 5.69584C1.90609 5.55933 1.80762 5.35517 1.80762 5.1318V3.78382C1.80762 2.42959 2.86941 1.37842 4.11945 1.37842H32.822C34.072 1.37842 35.1338 2.42959 35.1338 3.78382V5.1318C35.1338 5.36266 35.0299 5.56767 34.8754 5.69095L34.8713 5.69427C34.7516 5.79078 34.6365 5.8837 34.5242 5.97438C32.6683 7.47297 31.5664 8.36273 22.937 14.802L22.9367 14.8022C22.6926 14.9844 22.4392 15.1862 22.1717 15.3992C21.7015 15.7737 21.1877 16.1828 20.6041 16.5817C20.169 16.8791 19.7489 17.1304 19.3644 17.3032C18.9698 17.4806 18.6804 17.5441 18.4884 17.5407Z" stroke="white" stroke-width="2"/>
</svg>
