<svg width="53" height="54" viewBox="0 0 53 54" fill="none" xmlns="http://www.w3.org/2000/svg">
<g clip-path="url(#clip0_21_112)">
<mask id="mask0_21_112" style="mask-type:alpha" maskUnits="userSpaceOnUse" x="0" y="0" width="53" height="53">
<path d="M26.4344 52.5972C40.7214 52.5972 52.3033 41.0153 52.3033 26.7283C52.3033 12.4413 40.7214 0.859375 26.4344 0.859375C12.1473 0.859375 0.56543 12.4413 0.56543 26.7283C0.56543 41.0153 12.1473 52.5972 26.4344 52.5972Z" fill="white"/>
</mask>
<g mask="url(#mask0_21_112)">
<path d="M26.4344 52.5972C40.7214 52.5972 52.3033 41.0153 52.3033 26.7283C52.3033 12.4413 40.7214 0.859375 26.4344 0.859375C12.1473 0.859375 0.56543 12.4413 0.56543 26.7283C0.56543 41.0153 12.1473 52.5972 26.4344 52.5972Z" stroke="white" stroke-width="2"/>
<path d="M38.7224 18.321V17.9511C38.7224 16.3763 37.3546 15.0874 35.6828 15.0874H13.3062C11.6344 15.0874 10.2666 16.3763 10.2666 17.9511V18.321H38.7224Z" fill="white"/>
<mask id="mask1_21_112" style="mask-type:alpha" maskUnits="userSpaceOnUse" x="10" y="15" width="36" height="28">
<path d="M10.2666 42.2498H45.8364V15.0874H10.2666V42.2498Z" fill="white"/>
</mask>
<g mask="url(#mask1_21_112)">
<path d="M13.4776 26.2059H22.4463V25.4868H13.4776V26.2059ZM13.4776 27.5421H22.4463V26.8229H13.4776V27.5421ZM13.4776 28.8782H22.4463V28.159H13.4776V28.8782ZM28.6465 32.7333C28.6465 28.3337 32.4887 24.767 37.2278 24.767C37.7381 24.767 38.2374 24.8103 38.7231 24.8899V23.4949H10.2666V30.3741C10.2666 31.9262 11.6344 33.1957 13.3062 33.1957H28.662C28.6529 33.0431 28.6465 32.8885 28.6465 32.7333Z" fill="white"/>
</g>
<mask id="mask2_21_112" style="mask-type:alpha" maskUnits="userSpaceOnUse" x="10" y="15" width="36" height="28">
<path d="M10.2666 42.2498H45.8364V15.0874H10.2666V42.2498Z" fill="white"/>
</mask>
<g mask="url(#mask2_21_112)">
<path d="M36.1359 24.1416C31.4924 24.1416 27.7285 28.0504 27.7285 32.8724C27.7285 37.6943 31.4924 41.6031 36.1359 41.6031C40.7794 41.6031 44.5433 37.6943 44.5433 32.8724C44.5433 28.0504 40.7794 24.1416 36.1359 24.1416ZM36.1359 25.2682C40.1734 25.2682 43.4581 28.679 43.4581 32.8724C43.4581 37.0657 40.1734 40.4765 36.1359 40.4765C32.0984 40.4765 28.8137 37.0651 28.8137 32.8724C28.8137 28.6797 32.0984 25.2682 36.1359 25.2682Z" fill="white"/>
</g>
<mask id="mask3_21_112" style="mask-type:alpha" maskUnits="userSpaceOnUse" x="10" y="15" width="36" height="28">
<path d="M10.2666 42.2498H45.8364V15.0874H10.2666V42.2498Z" fill="white"/>
</mask>
<g mask="url(#mask3_21_112)">
<path d="M34.8425 32.549V31.718C34.8464 31.4852 34.8425 30.6089 36.136 30.6089C37.4294 30.6089 37.4255 31.4891 37.4294 31.718L34.8425 32.549ZM36.4593 35.7827H35.8126V34.8747C35.6205 34.7789 35.4892 34.6017 35.4892 34.3974C35.4892 34.0908 35.7783 33.8425 36.136 33.8425C36.4936 33.8425 36.7827 34.0908 36.7827 34.3967C36.7827 34.6011 36.652 34.7783 36.4593 34.874V35.7827ZM38.3995 32.28V31.3901C38.3995 31.3901 38.3995 29.3154 36.136 29.3154C33.8724 29.3154 33.8724 31.3901 33.8724 31.3901V32.28H32.9023V36.4294H39.3696V32.28H38.3995Z" fill="white"/>
</g>
</g>
</g>
<defs>
<clipPath id="clip0_21_112">
<rect width="52.8696" height="52.8696" fill="white" transform="translate(0 0.293457)"/>
</clipPath>
</defs>
</svg>
