<svg width="53" height="53" viewBox="0 0 53 53" fill="none" xmlns="http://www.w3.org/2000/svg">
<g clip-path="url(#clip0_21_153)">
<mask id="mask0_21_153" style="mask-type:alpha" maskUnits="userSpaceOnUse" x="0" y="0" width="53" height="53">
<path d="M26.1765 52.678C40.4636 52.678 52.0455 41.0961 52.0455 26.8091C52.0455 12.5221 40.4636 0.940186 26.1765 0.940186C11.8895 0.940186 0.307617 12.5221 0.307617 26.8091C0.307617 41.0961 11.8895 52.678 26.1765 52.678Z" fill="white"/>
</mask>
<g mask="url(#mask0_21_153)">
<path d="M26.1768 53.3248C11.5563 53.3248 -0.338867 41.4296 -0.338867 26.8091C-0.338867 12.1886 11.5563 0.293457 26.1768 0.293457C40.7973 0.293457 52.6924 12.1886 52.6924 26.8091C52.6924 41.4296 40.7973 53.3248 26.1768 53.3248ZM26.1768 1.5869C12.269 1.5869 0.954579 12.9013 0.954579 26.8091C0.954579 40.7169 12.269 52.0313 26.1768 52.0313C40.0846 52.0313 51.399 40.7169 51.399 26.8091C51.399 12.9013 40.0846 1.5869 26.1768 1.5869Z" fill="white"/>
</g>
<path d="M7.45148 25.162H15.0828C15.4068 25.162 15.67 24.8988 15.67 24.5748C15.67 24.2508 15.4068 23.9875 15.0828 23.9875H7.45148C7.12747 23.9875 6.86426 24.2508 6.86426 24.5748C6.86426 24.8988 7.12618 25.162 7.45148 25.162Z" fill="white"/>
<path d="M15.278 27.8963C15.278 27.5723 15.0148 27.3091 14.6908 27.3091H3.73273C3.40872 27.3091 3.14551 27.5723 3.14551 27.8963C3.14551 28.2203 3.40872 28.4835 3.73273 28.4835H14.6908C15.0148 28.4835 15.278 28.2203 15.278 27.8963Z" fill="white"/>
<path d="M41.794 18.7278C41.7545 18.7012 27.0209 13.0476 27.0209 13.0476C26.8857 12.9959 26.7356 12.9959 26.6005 13.0476C26.6005 13.0476 11.8629 18.7038 11.8274 18.7278C11.6651 18.8364 11.5693 19.0194 11.5693 19.2147V22.9703H12.7431V20.0865L17.3491 21.9581V26.4477L21.9279 28.0826V23.8175L26.2241 25.563V38.8874L12.7431 33.4103V32.8224H11.5693V33.8068C11.5693 34.0454 11.7142 34.2608 11.9347 34.3507L26.5908 40.3044C26.5985 40.3076 26.7434 40.3477 26.8113 40.3477C26.8792 40.3477 27.0241 40.3076 27.0318 40.3044L41.6879 34.3507C41.9091 34.2608 42.0539 34.0454 42.0539 33.8068V19.2147C42.0526 19.0194 41.9556 18.8371 41.794 18.7278ZM18.1103 21.001L13.754 19.2303L26.8113 14.224L30.6121 15.681L18.1103 21.001ZM26.8107 24.5353L22.6865 22.8597L35.2808 17.4718L39.8674 19.2303L26.8107 24.5353ZM40.8788 33.4123L27.3972 38.8894V25.5643L40.8788 20.0872V33.4123Z" fill="white"/>
<path d="M14.8871 31.2178C14.8871 30.8938 14.6239 30.6306 14.2999 30.6306H8.16828C7.84427 30.6306 7.58105 30.8938 7.58105 31.2178C7.58105 31.5418 7.84427 31.8051 8.16828 31.8051H14.2999C14.6239 31.8051 14.8871 31.5418 14.8871 31.2178Z" fill="white"/>
<path d="M37.2791 33.138L39.4502 32.263C39.65 32.1822 39.8137 31.9403 39.8137 31.7256V29.1529C39.8137 28.9376 39.65 28.8276 39.4502 28.9078L37.2791 29.7828C37.0787 29.8637 36.915 30.1055 36.915 30.3203V32.8929C36.915 33.1083 37.0787 33.2189 37.2791 33.138Z" fill="white"/>
<path d="M29.8058 36.1493L35.2926 33.9388C35.4925 33.858 35.6561 33.6161 35.6561 33.4014V30.8287C35.6561 30.6133 35.4925 30.5034 35.2926 30.5836L29.8058 32.7941C29.606 32.8749 29.4424 33.1168 29.4424 33.3315V35.9042C29.443 36.1195 29.6067 36.2301 29.8058 36.1493Z" fill="white"/>
</g>
<defs>
<clipPath id="clip0_21_153">
<rect width="51.7379" height="51.7379" fill="white" transform="translate(0.307617 0.940186)"/>
</clipPath>
</defs>
</svg>
