<svg width="31" height="36" viewBox="0 0 31 36" fill="none" xmlns="http://www.w3.org/2000/svg">
<path d="M19.52 24.8098L20.1332 25.2049L20.6967 24.7417C21.6454 23.962 22.8404 23.5 24.1392 23.5C27.1741 23.5 29.6862 26.0454 29.6862 29.25C29.6862 32.4546 27.1741 35 24.1392 35C21.1043 35 18.5923 32.4546 18.5923 29.25V29.2497C18.5922 28.8274 18.6368 28.4065 18.7252 27.9945L18.8704 27.3185L18.2892 26.944L11.2999 22.4402L10.6868 22.0451L10.1233 22.5083C9.17455 23.288 7.97951 23.75 6.68073 23.75C3.64583 23.75 1.13379 21.2046 1.13379 18C1.13379 14.7954 3.64583 12.25 6.68073 12.25C7.97951 12.25 9.17455 12.712 10.1233 13.4917L10.6868 13.9549L11.2999 13.5598L18.2892 9.05598L18.8704 8.68144L18.7252 8.00541C18.6385 7.60158 18.5923 7.18173 18.5923 6.75C18.5923 3.54537 21.1043 1 24.1392 1C27.1741 1 29.6862 3.54537 29.6862 6.75C29.6862 9.95463 27.1741 12.5 24.1392 12.5C22.8405 12.5 21.6454 12.038 20.6967 11.2582L20.1332 10.7951L19.52 11.1902L12.5308 15.694L11.9498 16.0684L12.0947 16.7442C12.272 17.5713 12.272 18.4286 12.0947 19.2557L11.9498 19.9316L12.5308 20.306L19.52 24.8098Z" stroke="white" stroke-width="2"/>
</svg>
