<svg width="36" height="34" viewBox="0 0 36 34" fill="none" xmlns="http://www.w3.org/2000/svg">
<path d="M31.6059 19.6249L31.6059 19.6249C31.5521 19.8669 31.3509 20.0134 31.1468 20.0134H13.1681H11.9483L12.1876 21.2095L12.589 23.2163L12.7498 24.0201H13.5695H30.0317C30.3084 24.0201 30.5675 24.2969 30.4908 24.6418L30.1524 26.1642L29.9825 26.9287L30.684 27.2769C31.4953 27.6795 32.0654 28.5372 32.0654 29.5421C32.0654 30.9504 30.9545 32.0539 29.6309 32.0539C28.3072 32.0539 27.1964 30.9504 27.1964 29.5421C27.1964 28.832 27.481 28.1958 27.9359 27.7401L29.6394 26.0336H27.2281H14.3705H11.959L13.6628 27.7402C14.1177 28.1958 14.4023 28.832 14.4023 29.5421C14.4023 30.9504 13.2914 32.0539 11.9678 32.0539C10.6441 32.0539 9.53329 30.9504 9.53329 29.5421C9.53329 28.6011 10.0337 27.7888 10.7655 27.3585L11.3787 26.9979L11.2391 26.3004L6.93082 4.76316L6.77002 3.95931H5.95025H1.66431C1.42453 3.95931 1.19238 3.75431 1.19238 3.45425V2.45087C1.19238 2.15081 1.42453 1.9458 1.66431 1.9458H7.95243C8.16 1.9458 8.36434 2.0975 8.41391 2.34534L8.41392 2.34539L8.97607 5.15548L9.13688 5.95931H9.95664H34.046C34.3228 5.95931 34.5818 6.23605 34.5052 6.58097L31.6059 19.6249Z" stroke="white" stroke-width="2"/>
</svg>
