<svg width="33" height="36" viewBox="0 0 33 36" fill="none" xmlns="http://www.w3.org/2000/svg">
<path d="M24.4412 9C24.4412 13.4186 20.8593 17 16.4391 17C12.019 17 8.43708 13.4186 8.43708 9C8.43708 4.5814 12.019 1 16.4391 1C20.8593 1 24.4412 4.5814 24.4412 9ZM16.4391 22.375C18.3386 22.375 20.1464 21.9681 21.7803 21.25H22.7405C27.4068 21.25 31.1927 25.0353 31.1927 29.7V32.625C31.1927 33.9358 30.1286 35 28.8169 35H4.06131C2.74968 35 1.68555 33.9358 1.68555 32.625V29.7C1.68555 25.0353 5.47139 21.25 10.1377 21.25H11.0987C12.737 21.9675 14.5383 22.375 16.4391 22.375Z" stroke="white" stroke-width="2"/>
</svg>
